<svg viewBox="0 0 24 24" fill="none" xmlns="http://www.w3.org/2000/svg">
    <path d="M19 3H14.82C14.4 1.84 13.3 1 12 1C10.7 1 9.6 1.84 9.18 3H5C3.9 3 3 3.9 3 5V19C3 20.1 3.9 21 5 21H19C20.1 21 21 20.1 21 19V5C21 3.9 20.1 3 19 3ZM12 3C12.55 3 13 3.45 13 4C13 4.55 12.55 5 12 5C11.45 5 11 4.55 11 4C11 3.45 11.45 3 12 3ZM16.2 11.3L11.3 16.2C10.9 16.6 10.3 16.6 9.9 16.2L7.1 13.4C6.7 13 6.7 12.4 7.1 12C7.5 11.6 8.1 11.6 8.5 12L10.6 14.1L14.8 9.9C15.2 9.5 15.8 9.5 16.2 9.9C16.6 10.3 16.6 10.9 16.2 11.3Z" fill="#CCCCCC"/>
</svg>
